<svg xmlns="http://www.w3.org/2000/svg" viewBox="0.00 0.00 1099.64 220.00" role="img" aria-label="Rocket Station"><path fill="#ffffff" fill-rule="nonzero" d="M659.97 110.00L549.97 0.00L439.97 110.00L477.59 147.65L544.42 24.01L508.72 178.75L549.97 220.00L591.22 178.75L555.50 24.01L622.33 147.65L659.97 110.00Z M0.00 67.90L37.40 67.90C41.50 67.90 45.15 68.39 48.35 69.35C51.53 70.32 54.23 71.72 56.40 73.53C58.58 75.35 60.22 77.58 61.32 80.19C62.42 82.80 63.00 85.77 63.00 89.13C63.00 92.48 62.45 95.34 61.32 97.93C60.20 100.51 58.58 102.66 56.40 104.39C54.23 106.12 51.56 107.44 48.35 108.35C45.13 109.26 41.50 109.73 37.40 109.73L15.84 109.73L15.84 130.85L0.00 130.85L0.00 67.90ZM37.13 97.82C38.83 97.82 40.29 97.62 41.53 97.21C42.76 96.80 43.81 96.22 44.66 95.51C45.51 94.76 46.15 93.89 46.56 92.81C46.97 91.74 47.16 90.61 47.16 89.38C47.16 88.14 46.94 86.93 46.56 85.91C46.17 84.89 45.51 84.01 44.66 83.27C43.81 82.53 42.76 81.98 41.53 81.57C40.29 81.15 38.83 80.96 37.13 80.96L15.84 80.96L15.84 97.85L37.13 97.85L37.13 97.82ZM66.00 130.57L66.00 130.85L47.25 130.85L32.12 108.93L48.24 107.08L66.00 130.57Z M69.25 86.38C70.95 82.39 73.34 78.95 76.45 76.04C79.56 73.12 83.21 70.84 87.45 69.16C91.68 67.49 96.22 66.66 101.09 66.66C105.96 66.66 110.58 67.49 114.79 69.13C118.97 70.78 122.62 73.07 125.70 76.01C128.78 78.95 131.18 82.39 132.91 86.35C134.64 90.31 135.49 94.63 135.49 99.33C135.49 104.03 134.61 108.38 132.91 112.37C131.18 116.35 128.78 119.79 125.70 122.70C122.62 125.62 118.99 127.90 114.79 129.58C110.58 131.26 106.04 132.08 101.09 132.08C96.14 132.08 91.60 131.26 87.40 129.58C83.19 127.90 79.56 125.62 76.48 122.70C73.40 119.79 70.98 116.35 69.27 112.31C67.54 108.29 66.69 103.98 66.69 99.33C66.69 94.68 67.54 90.39 69.25 86.40L69.25 86.38ZM83.90 106.84C84.81 109.09 86.07 111.04 87.72 112.69C89.38 114.35 91.33 115.64 93.58 116.57C95.84 117.51 98.31 117.98 101.01 117.98C103.70 117.98 106.21 117.51 108.49 116.60C110.77 115.69 112.75 114.40 114.37 112.72C116.02 111.05 117.32 109.09 118.25 106.84C119.18 104.58 119.65 102.11 119.65 99.41C119.65 96.72 119.18 94.22 118.25 91.93C117.32 89.65 116.02 87.67 114.37 86.05C112.72 84.40 110.77 83.10 108.49 82.17C106.21 81.24 103.70 80.77 101.01 80.77C98.31 80.77 95.84 81.24 93.58 82.17C91.33 83.10 89.38 84.40 87.78 86.05C86.16 87.70 84.89 89.65 83.96 91.93C83.02 94.22 82.56 96.72 82.56 99.41C82.56 102.11 83.02 104.58 83.93 106.84L83.90 106.84Z M142.07 86.38C143.80 82.39 146.19 78.95 149.24 76.04C152.29 73.12 155.90 70.84 160.02 69.16C164.15 67.49 168.68 66.66 173.61 66.66C177.84 66.66 181.75 67.32 185.35 68.58C188.95 69.88 192.14 71.69 194.95 74.00C197.72 76.31 200.04 79.09 201.85 82.31C203.67 85.53 204.90 89.07 205.53 92.95L189.61 92.95C189.09 91.13 188.32 89.46 187.33 87.94C186.34 86.43 185.13 85.14 183.73 84.07C182.32 83.02 180.76 82.20 179.05 81.59C177.35 81.01 175.48 80.71 173.42 80.71C170.83 80.71 168.44 81.18 166.24 82.09C164.04 83.00 162.14 84.29 160.52 85.97C158.90 87.64 157.63 89.62 156.69 91.90C155.76 94.19 155.29 96.69 155.29 99.38C155.29 102.08 155.76 104.56 156.67 106.81C157.57 109.07 158.84 111.04 160.49 112.69C162.14 114.37 164.07 115.67 166.26 116.57C168.46 117.48 170.88 117.95 173.52 117.95C175.70 117.95 177.73 117.62 179.60 116.93C181.47 116.24 183.12 115.28 184.52 114.01C185.93 112.75 187.14 111.27 188.13 109.53C189.12 107.80 189.81 105.88 190.16 103.76L206.09 103.76C205.62 107.85 204.49 111.65 202.70 115.12C200.91 118.58 198.60 121.55 195.74 124.05C192.88 126.56 189.61 128.51 185.85 129.91C182.08 131.31 178.01 132.03 173.61 132.03C168.74 132.03 164.23 131.20 160.05 129.52C155.87 127.85 152.27 125.56 149.21 122.65C146.16 119.73 143.77 116.30 142.04 112.31C140.31 108.32 139.45 103.98 139.45 99.27C139.45 94.57 140.31 90.34 142.04 86.35L142.07 86.38Z M210.92 67.90L226.76 67.90L226.76 94.30L227.04 94.30L236.12 84.78L253.11 67.90L272.47 67.90L272.47 68.17L242.63 98.45L242.63 97.85L226.79 113.68L226.79 130.85L210.95 130.85L210.95 67.93L210.92 67.90ZM237.16 100.98L248.08 90.50L273.87 130.54L273.87 130.82L256.63 130.82L237.19 100.98L237.16 100.98Z M277.89 67.90L331.57 67.90L331.57 81.46L293.73 81.46L293.73 92.89L329.09 92.89L329.09 105.38L293.73 105.38L293.73 117.26L331.57 117.26L331.57 130.82L277.89 130.82L277.89 67.90Z M358.77 81.46L337.12 81.46L337.12 67.90L396.25 67.90L396.25 81.46L374.61 81.46L374.61 130.82L358.77 130.82L358.77 81.46Z M716.16 109.18C716.57 110.99 717.34 112.56 718.49 113.85C719.65 115.14 720.97 116.19 722.51 116.99C724.05 117.78 725.70 118.36 727.49 118.75C729.27 119.13 731.09 119.32 732.90 119.32C734.72 119.32 736.48 119.16 738.13 118.83C739.80 118.50 741.29 118.03 742.58 117.37C743.88 116.74 744.92 115.91 745.72 114.95C746.52 113.99 746.90 112.92 746.90 111.73C746.90 110.63 746.57 109.70 745.94 109.01C745.28 108.29 744.40 107.72 743.24 107.25C742.09 106.78 740.74 106.40 739.20 106.10C737.63 105.79 735.93 105.55 734.06 105.30L730.18 104.86C726.49 104.39 722.95 103.81 719.57 103.10C716.18 102.38 713.24 101.42 710.71 100.15C708.18 98.89 706.17 97.21 704.63 95.15C703.12 93.06 702.35 90.36 702.35 87.01C702.35 83.65 703.09 80.82 704.60 78.35C706.09 75.85 708.13 73.73 710.68 71.97C713.24 70.21 716.24 68.89 719.65 68.01C723.09 67.13 726.72 66.69 730.51 66.69C734.31 66.69 738.21 67.15 741.81 68.06C745.41 68.97 748.66 70.35 751.49 72.16C754.35 73.97 756.66 76.23 758.45 78.90C760.24 81.57 761.31 84.67 761.67 88.19L745.74 88.19C745.33 86.74 744.64 85.44 743.68 84.37C742.72 83.30 741.57 82.39 740.24 81.65C738.92 80.90 737.44 80.38 735.79 80.03C734.14 79.67 732.41 79.50 730.59 79.50C729.08 79.50 727.62 79.64 726.25 79.89C724.87 80.16 723.66 80.55 722.59 81.04C721.55 81.54 720.69 82.17 720.03 82.94C719.37 83.71 719.07 84.62 719.07 85.66C719.07 86.60 719.40 87.39 720.03 88.03C720.66 88.69 721.63 89.21 722.84 89.65C724.08 90.09 725.61 90.47 727.46 90.83C729.30 91.19 731.47 91.55 733.92 91.88L737.60 92.32C740.82 92.84 744.01 93.42 747.12 94.02C750.23 94.63 753.01 95.59 755.43 96.83C757.85 98.09 759.83 99.77 761.31 101.89C762.79 104.00 763.57 106.78 763.57 110.25C763.57 114.01 762.68 117.23 760.98 119.98C759.28 122.73 756.94 124.96 754.08 126.75C751.19 128.54 747.95 129.88 744.32 130.76C740.68 131.64 736.92 132.08 733.04 132.08C729.16 132.08 725.26 131.61 721.46 130.71C717.67 129.80 714.29 128.40 711.26 126.53C708.24 124.66 705.73 122.26 703.72 119.40C701.72 116.54 700.56 113.13 700.20 109.20L716.13 109.20L716.16 109.18Z M785.34 81.46L763.70 81.46L763.70 67.90L822.83 67.90L822.83 81.46L801.18 81.46L801.18 130.82L785.34 130.82L785.34 81.46Z M812.57 130.82L840.29 67.90L859.82 67.90L887.09 130.82L869.85 130.82L854.73 95.10L849.80 82.50L849.53 82.50L844.61 95.18L829.21 130.82L812.57 130.82ZM829.21 104.86L870.29 104.86L870.29 117.45L829.21 117.45L829.21 104.86Z M898.65 81.46L877.00 81.46L877.00 67.90L936.13 67.90L936.13 81.46L914.49 81.46L914.49 130.82L898.65 130.82L898.65 81.46Z M939.07 67.90L954.91 67.90L954.91 130.82L939.07 130.82L939.07 67.90Z M962.94 86.38C964.65 82.39 967.04 78.95 970.15 76.04C973.25 73.12 976.91 70.84 981.15 69.16C985.38 67.49 989.92 66.66 994.78 66.66C999.65 66.66 1004.27 67.49 1008.48 69.13C1012.66 70.78 1016.32 73.07 1019.40 76.01C1022.48 78.95 1024.87 82.39 1026.60 86.35C1028.33 90.31 1029.19 94.63 1029.19 99.33C1029.19 104.03 1028.31 108.38 1026.60 112.37C1024.87 116.35 1022.48 119.79 1019.40 122.70C1016.32 125.62 1012.69 127.90 1008.48 129.58C1004.27 131.26 999.73 132.08 994.78 132.08C989.83 132.08 985.30 131.26 981.09 129.58C976.88 127.90 973.25 125.62 970.17 122.70C967.09 119.79 964.67 116.35 962.97 112.31C961.24 108.29 960.38 103.98 960.38 99.33C960.38 94.68 961.23 90.39 962.94 86.40L962.94 86.38ZM977.60 106.84C978.50 109.09 979.77 111.04 981.42 112.69C983.07 114.35 985.02 115.64 987.28 116.57C989.53 117.51 992.01 117.98 994.70 117.98C997.40 117.98 999.90 117.51 1002.18 116.60C1004.46 115.69 1006.45 114.40 1008.07 112.72C1009.72 111.05 1011.01 109.09 1011.95 106.84C1012.88 104.58 1013.35 102.11 1013.35 99.41C1013.35 96.72 1012.88 94.22 1011.95 91.93C1011.01 89.65 1009.72 87.67 1008.07 86.05C1006.42 84.40 1004.46 83.10 1002.18 82.17C999.90 81.24 997.40 80.77 994.70 80.77C992.01 80.77 989.53 81.24 987.28 82.17C985.02 83.10 983.07 84.40 981.47 86.05C979.85 87.70 978.59 89.65 977.65 91.93C976.72 94.22 976.25 96.72 976.25 99.41C976.25 102.11 976.72 104.58 977.63 106.84L977.60 106.84Z M1034.49 67.90L1055.01 67.90L1074.45 94.82L1084.41 109.78L1084.68 109.78L1084.41 94.82L1084.41 67.90L1099.64 67.90L1099.64 130.82L1080.64 130.82L1059.68 101.61L1049.73 86.65L1049.45 86.65L1049.62 101.61L1049.62 130.82L1034.49 130.82L1034.49 67.90Z"/></svg>
